<?xml version="1.0" encoding="utf-8"?>
<!-- Generator: Adobe Illustrator 16.0.0, SVG Export Plug-In . SVG Version: 6.00 Build 0)  -->
<!DOCTYPE svg PUBLIC "-//W3C//DTD SVG 1.1//EN" "http://www.w3.org/Graphics/SVG/1.1/DTD/svg11.dtd">
<svg version="1.1" id="Layer_1" xmlns="http://www.w3.org/2000/svg" xmlns:xlink="http://www.w3.org/1999/xlink" x="0px" y="0px"
	 width="781.902px" height="781.647px" viewBox="0 0 781.902 781.647" enable-background="new 0 0 781.902 781.647"
	 xml:space="preserve">
<path fill="#DEDDDD" d="M514.024,709.997c-1.831-5.785-1.926-10.711-0.282-14.777c1.645-4.068,5.321-7.412,11.031-10.031
	c5.769-2.648,11.366-2.529,16.791,0.357c5.427,2.887,9.852,8.061,13.275,15.521l3.627,7.906c3.547,7.729,4.588,14.58,3.122,20.559
	c-1.465,5.977-5.127,10.311-10.985,12.998c-10.562,4.848-19.041,2.094-25.439-8.258l-5.503,2.525
	c3.679,6.299,8.378,10.393,14.097,12.281c5.721,1.887,12.041,1.244,18.964-1.934c4.911-2.254,8.7-5.451,11.365-9.594
	c2.666-4.143,3.987-8.895,3.962-14.256c-0.024-5.361-1.354-10.91-3.988-16.65l-3.849-8.387c-2.622-5.639-5.948-10.191-9.977-13.662
	c-4.027-3.471-8.434-5.559-13.217-6.264c-4.783-0.707-9.571,0.039-14.363,2.238c-6.864,3.15-11.532,7.477-14.002,12.98
	c-2.472,5.504-2.515,11.826-0.132,18.971L514.024,709.997z"/>
<path fill="#DEDDDD" d="M445.612,747.247c1.539,6.158,3.967,11.324,7.282,15.498c3.314,4.172,7.31,7.066,11.982,8.682
	c4.673,1.617,9.672,1.803,14.997,0.559c5.325-1.246,9.728-3.652,13.205-7.223c3.479-3.572,5.766-8.051,6.863-13.439
	c1.099-5.387,0.91-11.234-0.564-17.543l-1.666-7.133c-2.296-9.826-6.608-17.051-12.937-21.672c-6.328-4.623-13.535-5.988-21.617-4.1
	c-5.357,1.252-9.777,3.654-13.259,7.209s-5.761,7.998-6.838,13.332c-1.077,5.332-0.871,11.186,0.617,17.557L445.612,747.247z
	 M449.572,737.797c-1.979-8.465-1.666-15.498,0.936-21.104c2.601-5.605,7.214-9.184,13.839-10.73
	c6.53-1.525,12.258-0.332,17.184,3.58c4.926,3.914,8.348,9.977,10.267,18.186l1.688,7.227c1.985,8.496,1.622,15.559-1.091,21.191
	c-2.712,5.631-7.285,9.197-13.721,10.701c-6.561,1.533-12.279,0.379-17.155-3.461c-4.876-3.844-8.288-9.932-10.235-18.268
	L449.572,737.797z"/>
<path fill="#DEDDDD" d="M372.151,781.647l5.956-0.111l-1.143-60.877l42.054,60.109l6.054-0.113l-1.335-71.082l-6.054,0.113
	l1.143,60.83l-42.004-60.063l-6.006,0.113L372.151,781.647z"/>
<path fill="#DEDDDD" d="M295.246,770.307l53.841,9.588l0.89-5l-23.939-4.262l11.572-64.994l-5.913-1.053l-11.572,64.992
	l-23.988-4.27L295.246,770.307z"/>
<path fill="#DEDDDD" d="M256.223,681.362l-5.851-2.199l0.158,76.014l5.348,2.012l50.206-57.074l-5.895-2.217l-13.886,16.115
	l-30.21-11.361L256.223,681.362z M255.805,749.334l0.284-41.26l26.69,10.037L255.805,749.334z"/>
<path fill="#DEDDDD" d="M194.052,670.668c3.8-4.732,7.848-7.541,12.143-8.43c4.297-0.887,9.118,0.318,14.465,3.617
	c5.402,3.334,8.406,8.059,9.013,14.174s-1.246,12.666-5.557,19.654l-4.567,7.402c-4.464,7.236-9.589,11.9-15.377,13.996
	c-5.786,2.096-11.423,1.451-16.908-1.934c-9.89-6.102-12.302-14.686-7.235-25.748l-5.152-3.18
	c-3.202,6.553-4.003,12.734-2.403,18.541c1.601,5.807,5.642,10.709,12.125,14.709c4.599,2.838,9.36,4.217,14.286,4.139
	c4.925-0.08,9.611-1.615,14.059-4.609c4.448-2.992,8.33-7.176,11.646-12.551l4.846-7.854c3.237-5.309,5.183-10.602,5.837-15.877
	c0.654-5.277-0.051-10.102-2.115-14.473c-2.064-4.373-5.341-7.943-9.829-10.711c-6.427-3.967-12.615-5.451-18.565-4.455
	c-5.95,0.994-11.236,4.465-15.861,10.41L194.052,670.668z"/>
<path fill="#DEDDDD" d="M107.548,660.727l40.364,36.896l3.426-3.748l-17.947-16.406l44.541-48.725l-4.434-4.053l-44.541,48.727
	l-17.983-16.439L107.548,660.727z"/>
<path fill="#DEDDDD" d="M72.963,517.088c5.77-1.885,10.694-2.025,14.776-0.418c4.083,1.605,7.46,5.252,10.132,10.938
	c2.701,5.744,2.634,11.342-0.203,16.793c-2.836,5.453-7.97,9.926-15.399,13.418l-7.871,3.701
	c-7.694,3.617-14.537,4.721-20.528,3.311s-10.357-5.031-13.1-10.865c-4.944-10.516-2.27-19.021,8.022-25.514l-2.576-5.48
	c-6.264,3.736-10.314,8.473-12.149,14.209c-1.836,5.738-1.133,12.053,2.107,18.945c2.299,4.891,5.532,8.65,9.698,11.277
	c4.167,2.627,8.931,3.904,14.291,3.83c5.361-0.074,10.899-1.455,16.614-4.143l8.352-3.926c5.613-2.674,10.136-6.041,13.568-10.102
	c3.434-4.059,5.48-8.484,6.143-13.273s-0.129-9.57-2.373-14.344c-3.212-6.834-7.582-11.461-13.107-13.881
	c-5.526-2.42-11.85-2.406-18.973,0.043L72.963,517.088z"/>
<path fill="#DEDDDD" d="M35.083,449.038c-6.145,1.596-11.287,4.072-15.429,7.426s-6.999,7.375-8.571,12.063
	c-1.571,4.689-1.711,9.689-0.417,15.002c1.294,5.314,3.742,9.693,7.346,13.137c3.603,3.445,8.104,5.691,13.501,6.738
	c5.398,1.047,11.244,0.805,17.538-0.727l7.115-1.734c9.806-2.387,16.989-6.768,21.552-13.139c4.563-6.371,5.862-13.588,3.897-21.654
	c-1.301-5.344-3.745-9.742-7.333-13.189c-3.587-3.449-8.051-5.686-13.395-6.713c-5.343-1.027-11.192-0.768-17.55,0.781
	L35.083,449.038z M44.569,452.909c8.444-2.057,15.482-1.811,21.111,0.738c5.63,2.549,9.249,7.129,10.858,13.738
	c1.587,6.516,0.446,12.254-3.421,17.217s-9.896,8.441-18.088,10.436l-7.211,1.756c-8.476,2.064-15.543,1.768-21.199-0.893
	s-9.267-7.199-10.83-13.621c-1.595-6.547-0.493-12.275,3.302-17.186c3.797-4.912,9.854-8.381,18.172-10.406L44.569,452.909z"/>
<path fill="#DEDDDD" d="M0,375.883l0.167,5.955l60.865-1.705l-59.72,42.605l0.17,6.053l71.066-1.992l-0.17-6.053l-60.816,1.705
	l59.672-42.557l-0.168-6.002L0,375.883z"/>
<path fill="#DEDDDD" d="M10.633,298.905l-9.091,53.926l5.007,0.846l4.043-23.979l65.097,10.973l0.998-5.922L11.59,323.776
	l4.05-24.027L10.633,298.905z"/>
<path fill="#DEDDDD" d="M99.205,259.061l2.146-5.871l-76.009,0.871l-1.961,5.365l57.542,49.67l2.161-5.916L66.84,289.445
	l11.077-30.314L99.205,259.061z M31.232,259.279l41.262-0.104l-9.787,26.785L31.232,259.279z"/>
<path fill="#DEDDDD" d="M109.335,196.764c4.767,3.756,7.614,7.777,8.542,12.064c0.927,4.289-0.234,9.121-3.483,14.498
	c-3.282,5.432-7.979,8.48-14.089,9.143c-6.11,0.664-12.678-1.129-19.704-5.373l-7.445-4.5c-7.276-4.396-11.989-9.479-14.138-15.246
	c-2.149-5.766-1.557-11.408,1.776-16.926c6.01-9.945,14.57-12.436,25.681-7.473l3.132-5.182c-6.583-3.141-12.771-3.885-18.563-2.232
	c-5.792,1.656-10.657,5.742-14.597,12.262c-2.795,4.625-4.129,9.398-4.006,14.324c0.125,4.924,1.704,9.596,4.738,14.016
	s7.254,8.262,12.659,11.527l7.898,4.773c5.339,3.188,10.648,5.084,15.931,5.689s10.1-0.145,14.452-2.25s7.893-5.414,10.62-9.928
	c3.905-6.463,5.333-12.666,4.282-18.605c-1.05-5.941-4.569-11.195-10.557-15.764L109.335,196.764z"/>
<path fill="#DEDDDD" d="M118.456,110.195L81.935,150.9l3.78,3.391l16.239-18.1l49.137,44.088l4.011-4.471l-49.137-44.086
	l16.271-18.137L118.456,110.195z"/>
<path fill="#DEDDDD" d="M261.766,74.281c1.938,5.752,2.123,10.676,0.556,14.771c-1.568,4.098-5.183,7.51-10.843,10.234
	c-5.719,2.754-11.318,2.738-16.796-0.047c-5.479-2.785-9.998-7.877-13.56-15.273l-3.774-7.838
	c-3.688-7.66-4.856-14.492-3.501-20.496c1.354-6.004,4.935-10.404,10.742-13.199c10.47-5.043,19-2.447,25.588,7.783l5.455-2.627
	c-3.794-6.229-8.568-10.234-14.322-12.016c-5.754-1.783-12.062-1.021-18.924,2.283c-4.869,2.346-8.598,5.613-11.186,9.803
	c-2.589,4.191-3.821,8.967-3.697,14.326s1.557,10.885,4.296,16.574l4.004,8.314c2.727,5.59,6.136,10.08,10.228,13.475
	c4.091,3.395,8.535,5.402,13.33,6.02c4.796,0.617,9.569-0.219,14.32-2.506c6.804-3.277,11.391-7.689,13.759-13.238
	c2.369-5.547,2.295-11.871-0.22-18.971L261.766,74.281z"/>
<path fill="#DEDDDD" d="M329.48,35.762c-1.654-6.129-4.178-11.248-7.569-15.359c-3.393-4.109-7.44-6.93-12.143-8.457
	c-4.703-1.529-9.704-1.621-15.005-0.277c-5.302,1.344-9.658,3.832-13.068,7.467c-3.411,3.635-5.615,8.156-6.612,13.564
	c-0.997,5.406-0.7,11.25,0.892,17.529l1.799,7.1c2.479,9.783,6.926,16.926,13.339,21.428c6.413,4.504,13.644,5.736,21.689,3.695
	c5.333-1.35,9.707-3.836,13.122-7.455c3.415-3.617,5.61-8.104,6.588-13.457c0.978-5.352,0.663-11.199-0.944-17.541L329.48,35.762z
	 M325.697,45.283c2.136,8.426,1.955,15.465-0.541,21.117c-2.497,5.654-7.043,9.316-13.638,10.988
	c-6.5,1.646-12.249,0.559-17.247-3.262s-8.532-9.816-10.604-17.99l-1.823-7.193c-2.144-8.457-1.912-15.525,0.695-21.207
	c2.606-5.682,7.112-9.334,13.519-10.957c6.531-1.654,12.271-0.607,17.218,3.143c4.946,3.75,8.471,9.775,10.574,18.072
	L325.697,45.283z"/>
<path fill="#DEDDDD" d="M402.288,0l-5.953,0.223l2.272,60.846L355.445,1.75l-6.051,0.227l2.654,71.043l6.051-0.225l-2.271-60.799
	l43.112,59.271l6.001-0.223L402.288,0z"/>
<path fill="#DEDDDD" d="M479.398,9.934l-54.008-8.6l-0.798,5.014l24.014,3.824l-10.381,65.195l5.931,0.943l10.381-65.193
	l24.063,3.83L479.398,9.934z"/>
<path fill="#DEDDDD" d="M520.053,98.131l5.89,2.09l-1.576-75.998l-5.384-1.91l-49.133,58l5.936,2.105l13.582-16.369l30.416,10.795
	L520.053,98.131z M519.202,30.162l0.485,41.258l-26.873-9.537L519.202,30.162z"/>
<path fill="#DEDDDD" d="M582.415,107.662c-3.711,4.803-7.706,7.688-11.984,8.654c-4.279,0.969-9.122-0.148-14.528-3.346
	c-5.464-3.232-8.556-7.9-9.275-14.002c-0.721-6.105,1.009-12.689,5.188-19.756l4.429-7.486c4.329-7.316,9.366-12.078,15.113-14.279
	c5.747-2.203,11.395-1.664,16.941,1.617c10.002,5.916,12.573,14.453,7.714,25.609l5.212,3.082
	c3.078-6.611,3.764-12.807,2.057-18.582c-1.709-5.775-5.841-10.602-12.396-14.48c-4.651-2.752-9.438-4.041-14.361-3.871
	c-4.923,0.172-9.58,1.793-13.971,4.869c-4.392,3.076-8.194,7.332-11.409,12.768l-4.699,7.941
	c-3.138,5.369-4.984,10.695-5.539,15.984c-0.557,5.287,0.238,10.098,2.385,14.43c2.146,4.332,5.487,7.842,10.026,10.527
	c6.5,3.844,12.715,5.213,18.646,4.107s11.151-4.674,15.664-10.703L582.415,107.662z"/>
<path fill="#DEDDDD" d="M669.094,116.008l-41.039-36.146l-3.356,3.811l18.248,16.072l-43.633,49.541l4.507,3.969l43.633-49.539
	l18.285,16.104L669.094,116.008z"/>
<path fill="#DEDDDD" d="M706.314,258.965c-5.733,1.992-10.654,2.223-14.766,0.693c-4.111-1.531-7.556-5.113-10.334-10.748
	c-2.807-5.693-2.843-11.291-0.107-16.795c2.734-5.504,7.784-10.072,15.147-13.701l7.802-3.846c7.625-3.76,14.446-4.99,20.463-3.691
	c6.016,1.299,10.448,4.838,13.299,10.619c5.139,10.424,2.622,18.977-7.548,25.66l2.678,5.43c6.193-3.852,10.155-8.662,11.884-14.432
	c1.729-5.771,0.909-12.07-2.459-18.904c-2.39-4.846-5.691-8.543-9.906-11.094c-4.215-2.549-9.001-3.738-14.359-3.564
	s-10.87,1.658-16.534,4.449l-8.277,4.08c-5.563,2.779-10.021,6.229-13.379,10.354c-3.356,4.121-5.321,8.584-5.895,13.385
	s0.306,9.566,2.638,14.297c3.339,6.773,7.793,11.318,13.364,13.635c5.569,2.318,11.892,2.186,18.968-0.395L706.314,258.965z"/>
<path fill="#DEDDDD" d="M745.465,326.327c6.113-1.711,11.209-4.283,15.287-7.713c4.079-3.43,6.86-7.504,8.346-12.221
	c1.484-4.717,1.53-9.719,0.137-15.008c-1.393-5.287-3.922-9.621-7.588-12.998s-8.208-5.537-13.624-6.484
	c-5.417-0.947-11.258-0.596-17.521,1.055l-7.083,1.865c-9.758,2.57-16.859,7.082-21.303,13.537s-5.607,13.696-3.494,21.723
	c1.401,5.32,3.927,9.67,7.578,13.053c3.65,3.381,8.156,5.533,13.518,6.463c5.36,0.928,11.205,0.559,17.531-1.109L745.465,326.327z
	 M735.908,322.631c-8.405,2.215-15.446,2.1-21.121-0.346c-5.677-2.443-9.381-6.955-11.113-13.533
	c-1.708-6.484-0.675-12.244,3.1-17.278c3.774-5.033,9.738-8.623,17.891-10.77l7.178-1.891c8.436-2.223,15.507-2.057,21.212,0.498
	c5.704,2.553,9.399,7.025,11.082,13.416c1.716,6.516,0.722,12.264-2.981,17.247c-3.705,4.98-9.696,8.563-17.975,10.742
	L735.908,322.631z"/>
<path fill="#DEDDDD" d="M781.902,398.78l-0.277-5.951l-60.822,2.842l58.914-43.713l-0.283-6.049l-71.017,3.316l0.283,6.049
	l60.773-2.838l-58.867,43.66l0.28,6L781.902,398.78z"/>
<path fill="#DEDDDD" d="M772.672,476.004l8.107-54.082l-5.021-0.754l-3.605,24.049l-65.286-9.787l-0.89,5.939l65.285,9.787
	l-3.611,24.096L772.672,476.004z"/>
<path fill="#DEDDDD" d="M684.871,517.44l-2.035,5.908l75.979-2.289l1.86-5.402l-58.459-48.586l-2.052,5.955l16.498,13.428
	l-10.509,30.518L684.871,517.44z M752.828,515.95l-41.253,0.873l9.285-26.961L752.828,515.95z"/>
<path fill="#DEDDDD" d="M675.904,579.918c-4.836-3.666-7.758-7.633-8.765-11.902s0.063-9.123,3.211-14.559
	c3.181-5.494,7.819-8.629,13.916-9.406s12.697,0.893,19.802,5.006l7.527,4.359c7.357,4.26,12.164,9.254,14.42,14.98
	c2.257,5.725,1.77,11.377-1.46,16.955c-5.823,10.057-14.336,12.707-25.538,7.951l-3.033,5.24c6.641,3.018,12.841,3.645,18.601,1.883
	s10.548-5.938,14.365-12.529c2.708-4.676,3.953-9.475,3.737-14.396c-0.217-4.922-1.882-9.563-4.998-13.926
	c-3.116-4.361-7.408-8.125-12.873-11.289l-7.985-4.625c-5.397-3.088-10.741-4.885-16.034-5.391
	c-5.292-0.508-10.096,0.332-14.407,2.518c-4.313,2.186-7.791,5.561-10.433,10.125c-3.785,6.535-5.097,12.762-3.936,18.684
	c1.161,5.918,4.777,11.105,10.85,15.563L675.904,579.918z"/>
<path fill="#DEDDDD" d="M668.382,666.651l35.763-41.373l-3.842-3.322L684.4,640.352l-49.943-43.17l-3.928,4.545l49.944,43.17
	l-15.934,18.434L668.382,666.651z"/>
</svg>
